<svg xmlns:dc="http://purl.org/dc/elements/1.1/" xmlns:cc="http://creativecommons.org/ns#" xmlns:rdf="http://www.w3.org/1999/02/22-rdf-syntax-ns#" xmlns:svg="http://www.w3.org/2000/svg" xmlns="http://www.w3.org/2000/svg" version="1.1" width="254" height="152" xml:space="preserve" style=""><rect id="backgroundrect" width="100%" height="100%" x="0" y="0" fill="none" stroke="none" class="" style=""/><metadata id="metadata27"><rdf:RDF><cc:Work rdf:about=""><dc:format>image/svg+xml</dc:format><dc:type rdf:resource="http://purl.org/dc/dcmitype/StillImage"/><dc:title/></cc:Work></rdf:RDF></metadata><defs id="defs25"/><g class="currentLayer" style=""><title>Layer 1</title><g class="selected"><rect width="136.77353185472666" height="15.414464369614707" x="58.177640642753744" y="99.57035093058735" id="rect5" style="fill:#dde6ed" class=""/><path d="m117.60182661965726,104.08300652548839 c0.13503119386931675,-0.07753404035077054 1.42784597904393,-0.7117450670402029 2.284205098873206,-1.1429737184293092 c1.5576501589570144,-0.7831809244420455 3.779131090355441,-1.7022642117460889 6.566871867012291,-2.743311158028881 c0.3475964280894079,-0.13241768689120106 0.6943216871860971,-0.26135069781158027 1.0427892842682027,-0.38505669477573246 c0.6098182948936863,-0.2256327691106642 1.2440293215831189,-0.4538790451994436 1.9017619110755946,-0.6890946732298658 c3.976886451699537,-1.4156496131460563 8.58537042311039,-2.603052950203333 13.812384379341983,-3.3217673691851757 c0.8851076965885505,-0.12109248998603195 1.9270258118640475,-0.2317309520596012 3.064772516337123,-0.3258172032717753 c2.159627932916353,-0.21169406522738005 4.3140288518764764,-0.3214613583082439 6.448392884004373,-0.3214613583082439 c1.0741513680055927,0 2.1334928631351944,0.027877407766568666 3.1788956543815137,0.08101871632159202 c1.0628261711004232,0.0383314356790327 2.0890632445072272,0.10279794113922316 3.0438644605121987,0.20036886832221168 C165.11538348180244,96.06128244065829 168.61922517046298,97.25739746764265 169.67159731365092,97.62328844457885 C170.31452003026746,97.8480500446968 171.02539392831497,97.73741158262324 171.10902615161467,97.16679589240128 C171.26409423231618,96.11442374921332 170.86684117164256,93.79885656660274 170.67605516224012,92.36926824957337 C169.84408877420663,86.10730553000795 169.44683571353298,79.11007618059925 171.46359193164568,71.8227475566197 c2.016756218112689,-7.289070961964956 7.099156121555208,-14.120778202759647 8.50609404477421,-16.279534966683293 c1.5541654829861935,-2.3843895330343114 0.48611229792953825,-3.2137424140897233 -1.3084958270433085,-3.5508848142666616 c-7.8448767793109155,-1.4705332596864882 -24.369210232944383,2.894894562759597 -32.62527877681219,6.702774229874311 c-9.806749350883171,4.523109410125738 -28.083003648846933,18.983643520040438 -29.47948754415347,43.77624188343958 c-0.08798806826323194,1.5820428907527622 0.2831299226292173,2.0455047948719636 1.0454027912463193,1.6116626365047426 z" id="path7" style="fill:#bcc5d6" class=""/><path d="m197.12910162573553,90.90831784880666 c-3.001177179869639,0 -10.189192538680784,5.05626483366136 -24.171454871600293,5.05626483366136 c-13.981391163926803,0 -21.16940652273795,-5.05626483366136 -24.17058370260759,-5.05626483366136 c-3.001177179869639,0 -10.189192538680784,5.05626483366136 -24.17058370260759,5.05626483366136 c-13.981391163926803,0 -21.170277691730654,-5.05626483366136 -24.171454871600293,-5.05626483366136 c-3.001177179869639,0 -10.19006370767349,5.05626483366136 -24.17058370260759,5.05626483366136 c-9.11329883268978,0 -15.340414792547021,-2.1483027360111855 -19.403546974524374,-3.644099896486125 V108.23238443774356 H100.44502447731979 H197.12910162573553 V90.90831784880666 z" id="path9" style="fill:#dde6ed" class=""/><g id="g17" class=""><path d="m193.64442565491447,38.53973619031504 v74.92053337265283 h-133.2888558839056 v-74.92053337265283 h133.2888558839056 m3.4846759708210615,-3.4846759708210615 h-140.25820782554771 v81.88988531429494 h140.25820782554771 v-81.88988531429494 z" id="path19" style="fill:#dde6ed"/></g><circle cx="83.00683427179105" cy="61.19100069109723" r="9.58285903930664" id="circle21" style="fill:#bcc5d6" class=""/></g></g></svg>